<svg width="19" height="22" viewBox="0 0 19 22" fill="none" xmlns="http://www.w3.org/2000/svg">
<path d="M9.27347 21.575C10.6963 21.575 11.8504 20.4209 11.8504 18.9968H6.69655C6.69655 20.4209 7.85066 21.575 9.27347 21.575ZM17.9501 15.5442C17.1718 14.7079 15.7156 13.4499 15.7156 9.32888C15.7156 6.19888 13.5209 3.69326 10.5617 3.07854V2.23904C10.5617 1.52723 9.98487 0.949974 9.27347 0.949974C8.56206 0.949974 7.98521 1.52723 7.98521 2.23904V3.07854C5.026 3.69326 2.83138 6.19888 2.83138 9.32888C2.83138 13.4499 1.37514 14.7079 0.596866 15.5442C0.355167 15.804 0.248014 16.1146 0.250028 16.4187C0.254459 17.0794 0.772904 17.7078 1.54312 17.7078H17.0038C17.774 17.7078 18.2929 17.0794 18.2969 16.4187C18.2989 16.1146 18.1918 15.8036 17.9501 15.5442Z" fill="white"/>
</svg>
