<svg width="21" height="12" viewBox="0 0 21 12" fill="none" xmlns="http://www.w3.org/2000/svg">
<path d="M5.10141 5.24316C4.98862 4.85321 4.85005 4.17323 4.85005 4.17323H4.83393C4.83393 4.17323 4.69536 4.85321 4.58257 5.24316L4.22485 6.45165H5.45268L5.10141 5.24316ZM20.0513 0.724991H11.0279V11.0375H20.0513C20.4799 11.0375 20.8248 10.6927 20.8248 10.2641V1.49843C20.8248 1.06982 20.4799 0.724991 20.0513 0.724991ZM19.2779 4.59218C19.2779 4.80487 19.1039 4.9789 18.8912 4.9789H18.5238C18.3014 5.73944 17.8245 6.50644 17.1477 7.23153C17.4184 7.43778 17.6988 7.63437 17.9888 7.81161C18.1661 7.92118 18.2241 8.14999 18.1209 8.33368L17.8664 8.78163C17.7568 8.97177 17.5151 9.033 17.3282 8.92021C16.9221 8.66884 16.5386 8.40136 16.1874 8.11776C15.8361 8.39814 15.4558 8.66884 15.0465 8.92021C14.8596 9.033 14.6179 8.97177 14.5083 8.78163L14.2538 8.33368C14.1506 8.15321 14.2086 7.92118 14.3891 7.81161C14.6888 7.62792 14.9692 7.43456 15.2302 7.23153C14.9756 6.96083 14.75 6.68368 14.5535 6.40331C14.4246 6.21962 14.4826 5.96503 14.6727 5.85224L14.8822 5.72655L15.1174 5.58798C15.2915 5.48485 15.517 5.53319 15.6331 5.69755C15.7942 5.92314 15.9811 6.14872 16.1938 6.37109C16.6289 5.91347 16.9608 5.43974 17.1606 4.9789H13.4771C13.2644 4.9789 13.0904 4.80487 13.0904 4.59218V4.07655C13.0904 3.86386 13.2644 3.68983 13.4771 3.68983H15.5396V3.17421C15.5396 2.96151 15.7136 2.78749 15.9263 2.78749H16.4419C16.6546 2.78749 16.8287 2.96151 16.8287 3.17421V3.68983H18.8912C19.1039 3.68983 19.2779 3.86386 19.2779 4.07655V4.59218ZM0.199753 1.49843V10.2641C0.199753 10.6927 0.544577 11.0375 0.97319 11.0375H9.99663V0.724991H0.97319C0.544577 0.724991 0.199753 1.06982 0.199753 1.49843ZM2.0979 8.46259L3.95092 3.01308C4.00571 2.85517 4.15073 2.75204 4.31831 2.75204H5.36567C5.53003 2.75204 5.67827 2.85839 5.73305 3.01308L7.58608 8.46259C7.66987 8.71396 7.48618 8.97499 7.2187 8.97499H6.48071C6.39731 8.97493 6.31616 8.94792 6.24938 8.89797C6.18259 8.84802 6.13373 8.77782 6.1101 8.69784L5.80717 7.66982H3.86714L3.57387 8.69462C3.52553 8.85897 3.37407 8.97499 3.20327 8.97499H2.46528C2.20102 8.97499 2.01411 8.71396 2.0979 8.46259Z" fill="white"/>
</svg>
