<svg width="40" height="30" viewBox="0 0 40 30" fill="none" xmlns="http://www.w3.org/2000/svg">
<path d="M38.8217 16.3271L25.6989 29.4499C24.5272 30.6216 22.4963 29.8014 22.4963 28.122V20.6232H11.873C10.8341 20.6232 9.99834 19.7874 9.99834 18.7485V11.2498C9.99834 10.2109 10.8341 9.3751 11.873 9.3751H22.4963V1.87635C22.4963 0.204753 24.5194 -0.623235 25.6989 0.548446L38.8217 13.6713C39.5481 14.4055 39.5481 15.5928 38.8217 16.3271ZM14.9975 29.0593V25.9349C14.9975 25.4193 14.5757 24.9975 14.0602 24.9975H7.49875C6.11617 24.9975 4.99917 23.8805 4.99917 22.4979V7.50042C4.99917 6.11783 6.11617 5.00083 7.49875 5.00083H14.0602C14.5757 5.00083 14.9975 4.57903 14.9975 4.06349V0.939006C14.9975 0.423466 14.5757 0.00166133 14.0602 0.00166133H7.49875C3.35882 0.00166133 0 3.36048 0 7.50042V22.4979C0 26.6379 3.35882 29.9967 7.49875 29.9967H14.0602C14.5757 29.9967 14.9975 29.5749 14.9975 29.0593Z" fill="#A80D37"/>
</svg>
