<svg width="35" height="30" viewBox="0 0 35 30" fill="none" xmlns="http://www.w3.org/2000/svg">
<path d="M1.07143 6.42857H28.9286C29.5205 6.42857 30 5.94911 30 5.35714V1.07143C30 0.479464 29.5205 0 28.9286 0H1.07143C0.479464 0 0 0.479464 0 1.07143V5.35714C0 5.94911 0.479464 6.42857 1.07143 6.42857ZM33.2143 11.7857H5.35714C4.76518 11.7857 4.28571 12.2652 4.28571 12.8571V17.1429C4.28571 17.7348 4.76518 18.2143 5.35714 18.2143H33.2143C33.8062 18.2143 34.2857 17.7348 34.2857 17.1429V12.8571C34.2857 12.2652 33.8062 11.7857 33.2143 11.7857ZM28.9286 23.5714H1.07143C0.479464 23.5714 0 24.0509 0 24.6429V28.9286C0 29.5205 0.479464 30 1.07143 30H28.9286C29.5205 30 30 29.5205 30 28.9286V24.6429C30 24.0509 29.5205 23.5714 28.9286 23.5714Z" fill="#A80D37"/>
</svg>
