<svg width="38" height="30" viewBox="0 0 38 30" fill="none" xmlns="http://www.w3.org/2000/svg">
<path d="M0 13.125V29.0625C0 29.5805 0.419531 30 0.9375 30H5.625V11.25H1.875C0.839648 11.25 0 12.0897 0 13.125ZM21.0937 10.3125H19.6875V7.96875C19.6875 7.70977 19.4777 7.5 19.2187 7.5H18.2812C18.0223 7.5 17.8125 7.70977 17.8125 7.96875V11.7188C17.8125 11.9777 18.0223 12.1875 18.2812 12.1875H21.0937C21.3527 12.1875 21.5625 11.9777 21.5625 11.7188V10.7813C21.5625 10.5223 21.3527 10.3125 21.0937 10.3125ZM29.165 6.56485L19.79 0.314653C19.482 0.109477 19.1201 0 18.75 0C18.3799 0 18.018 0.109477 17.71 0.314653L8.33496 6.56485C8.07817 6.73605 7.86761 6.96798 7.72196 7.24007C7.57631 7.51216 7.50007 7.81599 7.5 8.12461V30H15V21.5625C15 21.0445 15.4195 20.625 15.9375 20.625H21.5625C22.0805 20.625 22.5 21.0445 22.5 21.5625V30H30V8.1252C30 7.49825 29.6865 6.91231 29.165 6.56485ZM18.75 15C16.1613 15 14.0625 12.9012 14.0625 10.3125C14.0625 7.72383 16.1613 5.625 18.75 5.625C21.3387 5.625 23.4375 7.72383 23.4375 10.3125C23.4375 12.9012 21.3387 15 18.75 15ZM35.625 11.25H31.875V30H36.5625C37.0805 30 37.5 29.5805 37.5 29.0625V13.125C37.5 12.0897 36.6603 11.25 35.625 11.25Z" fill="#A80D37"/>
</svg>
